# xmcd
#
# Track frame offsets:
#	190
#	14970
#	25637
#	41957
#	61662
#	109875
#	125537
#	149025
#	165032
#	184395
#	205422
#
# Disc length: 4292 seconds
#
# Revision: 3
# Processed by: cddbd v1.5.2PL0 Copyright (c) Steve Scherf et al.
# Submitted via: EZCDAudioConverter 2.0.5.1
#
DISCID=a110c20b
DTITLE=Various Artist - Mississippi Delta Blues Jam in Memphis, Vol. II
DYEAR=1981
DGENRE=Blues
TTITLE0=Sleepy John Estes - Need More Blues
TTITLE1=Sleepy John Estes - Little Lara
TTITLE2=Sleepy John Estes - Rats
TTITLE3=Sleepy John Estes - President Kennedy Stayed Away Too Long
TTITLE4=Nathan Beauregard - Nathan's Bumble Bee Blues
TTITLE5=Nathan Beauregard - 'Bout a Spoonful
TTITLE6=Bukka White - Christmas Eve Blues
TTITLE7=Bukka White - Columbus, MS Blues
TTITLE8=Bukka White - Sad Day Blues
TTITLE9=Bukka White - Stuttgart, Ark.
TTITLE10=Bukka White - Mixed Water
EXTD=
EXTT0=
EXTT1=
EXTT2=
EXTT3=
EXTT4=
EXTT5=
EXTT6=
EXTT7=
EXTT8=
EXTT9=
EXTT10=
PLAYORDER=
